<svg width="80" height="80" viewBox="0 0 80 80" fill="none" xmlns="http://www.w3.org/2000/svg">
<rect width="80" height="80" rx="40" fill="#6A983C"/>
<path d="M43.7216 22.0909L43.1591 46.7386H37.6705L37.125 22.0909H43.7216ZM40.4148 57.375C39.3807 57.375 38.4943 57.0114 37.7557 56.2841C37.0284 55.5568 36.6648 54.6705 36.6648 53.625C36.6648 52.6023 37.0284 51.7273 37.7557 51C38.4943 50.2727 39.3807 49.9091 40.4148 49.9091C41.4261 49.9091 42.3011 50.2727 43.0398 51C43.7898 51.7273 44.1648 52.6023 44.1648 53.625C44.1648 54.3182 43.9886 54.9489 43.6364 55.517C43.2955 56.0852 42.8409 56.5398 42.2727 56.8807C41.7159 57.2102 41.0966 57.375 40.4148 57.375Z" fill="#575757"/>
</svg>
